<?xml version="1.0" standalone="no"?><!DOCTYPE svg PUBLIC "-//W3C//DTD SVG 1.1//EN" "http://www.w3.org/Graphics/SVG/1.1/DTD/svg11.dtd"><svg class="icon" width="200px" height="191.76px" viewBox="0 0 1068 1024" version="1.1" xmlns="http://www.w3.org/2000/svg"><path d="M361.160348 819.734261c13.534609 0 26.35687 2.493217 38.466782 7.479652a95.432348 95.432348 0 0 1 31.521392 20.836174c8.904348 8.904348 16.027826 19.411478 21.370435 31.521391 5.342609 12.109913 8.013913 24.932174 8.013913 38.466783 0 13.534609-2.671304 26.35687-8.013913 38.466782a102.711652 102.711652 0 0 1-21.370435 31.521392c-8.904348 8.904348-19.411478 16.027826-31.521392 21.370435-12.109913 5.342609-24.932174 8.013913-38.466782 8.013913a96.834783 96.834783 0 0 1-39.535305-8.013913 102.711652 102.711652 0 0 1-31.521391-21.370435c-8.904348-8.904348-16.027826-19.411478-21.370435-31.521392a94.252522 94.252522 0 0 1-8.013913-38.466782c0-13.534609 2.671304-26.35687 8.013913-38.466783s12.466087-22.617043 21.370435-31.521391c8.904348-8.904348 19.411478-15.849739 31.521391-20.836174a102.845217 102.845217 0 0 1 39.535305-7.479652z m444.505043 2.137043c13.534609 0 26.534957 2.493217 39.001044 7.479653 12.466087 4.986435 23.151304 11.931826 32.055652 20.836173 8.904348 8.904348 16.027826 19.411478 21.370435 31.521392 5.342609 12.109913 8.013913 24.932174 8.013913 38.466782 0 13.534609-2.671304 26.35687-8.013913 38.466783a102.711652 102.711652 0 0 1-21.370435 31.521391c-8.904348 8.904348-19.589565 16.027826-32.055652 21.370435-12.466087 5.342609-25.466435 8.013913-39.001044 8.013913-13.534609 0-26.35687-2.671304-38.466782-8.013913a102.711652 102.711652 0 0 1-31.521392-21.370435c-8.904348-8.904348-16.027826-19.411478-21.370434-31.521391a94.252522 94.252522 0 0 1-8.013913-38.466783c0-13.534609 2.671304-26.35687 8.013913-38.466782s12.466087-22.617043 21.370434-31.521392c8.904348-8.904348 19.411478-15.849739 31.521392-20.836173a100.040348 100.040348 0 0 1 38.466782-7.479653z m179.511652-606.920347c19.945739 0 35.439304 2.671304 46.480696 8.013913s18.877217 11.931826 23.507478 19.767652c4.630261 7.835826 6.767304 16.205913 6.411131 25.110261-0.356174 8.904348-1.602783 16.562087-3.739826 22.973217-2.137043 6.41113-6.767304 19.589565-13.890783 39.535304s-14.781217 41.850435-22.973217 65.714087a16185.410783 16185.410783 0 0 1-24.576 71.056696 3529.394087 3529.394087 0 0 1-19.767652 55.56313c-9.260522 28.493913-20.836174 48.261565-34.726957 59.302957s-31.165217 16.562087-51.823304 16.562087h-560.973913l14.959304 96.166956h539.603478c34.192696 0 51.289043 14.60313 51.289044 43.809392 0 14.246957-3.383652 26.534957-10.150957 36.864-6.767304 10.329043-20.123826 15.493565-40.069565 15.493565H324.830609c-14.246957 0-26.178783-3.205565-35.795479-9.616696a81.096348 81.096348 0 0 1-24.041739-25.110261 152.620522 152.620522 0 0 1-15.493565-33.658434 307.600696 307.600696 0 0 1-9.082435-34.192696c-0.712348-4.274087-2.671304-14.60313-5.876869-30.98713-3.205565-16.384-7.123478-36.864-11.753739-61.44l-15.493566-82.276174c-5.698783-30.274783-11.397565-60.727652-17.096347-91.358609-13.534609-71.94713-28.850087-152.086261-45.946435-240.417391h-80.139131c-10.685217 0-19.589565-2.671304-26.713043-8.013913a69.765565 69.765565 0 0 1-17.630609-19.233392 74.039652 74.039652 0 0 1-9.616695-24.041739 115.97913 115.97913 0 0 1-2.671305-23.507478c0-14.246957 4.808348-26.000696 14.425044-35.261218C31.521391 62.508522 44.521739 57.878261 60.905739 57.878261h107.920696c14.246957 0 25.644522 2.137043 34.192695 6.41113 8.548174 4.274087 15.315478 9.616696 20.301913 16.027826 4.986435 6.41113 8.548174 13.178435 10.685218 20.301913 2.137043 7.123478 3.917913 13.178435 5.342609 18.16487 1.424696 5.698783 2.849391 13.712696 4.274087 24.041739 1.424696 10.329043 2.849391 20.836174 4.274086 31.521391 2.137043 12.822261 4.274087 26.35687 6.411131 40.603827h730.868869z m-80.13913-34.192696H513.958957l141.044869-141.04487c16.384-16.384 34.370783-24.754087 53.960348-25.110261 19.589565-0.356174 37.576348 7.657739 53.960348 24.04174l142.113391 142.113391z" fill="#000000" /></svg>