<?xml version="1.0" standalone="no"?><!DOCTYPE svg PUBLIC "-//W3C//DTD SVG 1.1//EN" "http://www.w3.org/Graphics/SVG/1.1/DTD/svg11.dtd"><svg class="icon" width="200px" height="200.00px" viewBox="0 0 1024 1024" version="1.1" xmlns="http://www.w3.org/2000/svg"><path d="M944.4 78.6C933.9 68.8 922.2 64 909.2 64H112.6c-12.9 0-24.3 4.9-34 14.6-9.8 9.7-14.6 21.1-14.6 34v798.3c0 13 4.8 24.3 14.6 34 9.7 9.8 21 14.6 34 14.6h429.9V614H425.9V477.7h116.6v-99.8c0-56.7 15.8-101 47.5-132.7 31.6-31.6 73.3-47.4 125.1-47.4 45.3 0 80.1 2.4 104.4 7.2v117H749c-45.3 0-68 22.3-68 66.7v89h133.5l-17 136.3H680.9v345.6h228.3c12.9 0 24.6-4.8 35.2-14.6 10.5-9.7 15.8-21 15.8-34V112.6c0-12.9-5.3-24.3-15.8-34z" fill="#264091" /></svg>