<?xml version="1.0" standalone="no"?><!DOCTYPE svg PUBLIC "-//W3C//DTD SVG 1.1//EN" "http://www.w3.org/Graphics/SVG/1.1/DTD/svg11.dtd"><svg class="icon" width="200px" height="200.00px" viewBox="0 0 1024 1024" version="1.1" xmlns="http://www.w3.org/2000/svg"><path d="M926.661 425.499l-352.446-328.542c-17.792-20.302-43.551-31.981-70.838-31.981-26.851 0-52.61 11.57-69.638 30.781l-339.348 329.634c-16.918 17.355-21.83 42.46-12.443 64.835s31.108 36.347 55.339 36.347h30.562v335.091c0 51.955 41.586 94.196 93.541 94.196h145.715c18.883 0 35.692-15.281 35.692-34.164v-222.994c0-9.497 6.222-17.901 15.717-17.901h102.819c9.497 0 16.7 8.514 16.7 17.901v222.885c0 18.992 15.827 34.164 34.709 34.164h145.715c51.955 0 94.524-42.132 94.524-94.196v-335.091h30.453c24.123 0 45.843-13.971 55.23-36.238 9.605-22.158 4.802-47.372-12.006-64.726v0 0M926.661 425.499v0z" fill="#7cba59" /></svg>